# xmcd
#
# Track frame offsets:
#	150
#	14021
#	30813
#	48395
#	64655
#	82549
#	98754
#	113903
#	131065
#	147583
#	165032
#	182016
#	197663
#	214191
#	231945
#	245520
#	259481
#	274286
#
# Disc length: 3827 seconds
# Revision: 0
# Processed by: cddbd v1.5.2PL0 Copyright (c) Steve Scherf et al.
# Submitted via: dBpowerAMP V12.0
#
DISCID=f80ef112
DTITLE=Various Artist - Country Radio August 2007
DYEAR=2007
DGENRE=Country
TTITLE0=Paul Brandt - Didn't Even See The Dust
TTITLE1=Reba McEntire Feat Kelly Clarkson - Because Of You
TTITLE2=Aaron Prichett - Done You Wrong
TTITLE3=Gretchen Wilson - One Of The Boys
TTITLE4=Rascal Flatts - Take Me There
TTITLE5=Toby Keith - Love Me IF You Can
TTITLE6=Doc Walker - What Do You See
TTITLE7=Sugarland - Everyday America
TTITLE8=Flynnville Train - Nowhere Than Somewhere
TTITLE9=Brad Paisley - Online
TTITLE10=Carmen Rasmusen - Nothin like The Summer
TTITLE11=Josh Turner - Firecracker
TTITLE12=Patricia Conroy - Ray Of Sun
TTITLE13=Pat Green - Way Back Texas
TTITLE14=Hal Ketchum - In Front Of The Alamo
TTITLE15=Jo Dee Massina - Biker Chick
TTITLE16=Kristina Cornell - It's A Girl Thing
TTITLE17=Rio Grand - That's My Memory
EXTD=
EXTT0=
EXTT1=
EXTT2=
EXTT3=
EXTT4=
EXTT5=
EXTT6=
EXTT7=
EXTT8=
EXTT9=
EXTT10=
EXTT11=
EXTT12=
EXTT13=
EXTT14=
EXTT15=
EXTT16=
EXTT17=
PLAYORDER=
